<?xml version="1.0" encoding="utf-8"?>
<!-- Generator: Adobe Illustrator 16.0.0, SVG Export Plug-In . SVG Version: 6.00 Build 0)  -->
<!DOCTYPE svg PUBLIC "-//W3C//DTD SVG 1.1//EN" "http://www.w3.org/Graphics/SVG/1.1/DTD/svg11.dtd">
<svg version="1.1" id="Layer_1" xmlns="http://www.w3.org/2000/svg" xmlns:xlink="http://www.w3.org/1999/xlink" x="0px" y="0px"
	 width="20px" height="20px" viewBox="0 0 20 20" enable-background="new 0 0 20 20" xml:space="preserve">
<g>
	<path d="M16,6H4C3.448,6,3,5.552,3,5s0.448-1,1-1h12c0.553,0,1,0.448,1,1S16.553,6,16,6z"/>
</g>
<g>
	<path d="M16,11H4c-0.552,0-1-0.448-1-1s0.448-1,1-1h12c0.553,0,1,0.448,1,1S16.553,11,16,11z"/>
</g>
<g>
	<path d="M16,16H4c-0.552,0-1-0.447-1-1s0.448-1,1-1h12c0.553,0,1,0.447,1,1S16.553,16,16,16z"/>
</g>
</svg>
