<?xml version="1.0" encoding="utf-8"?>
<!DOCTYPE svg PUBLIC "-//W3C//DTD SVG 1.1//EN" "http://www.w3.org/Graphics/SVG/1.1/DTD/svg11.dtd">
<svg class="rotating" width="30px" height="30px" viewBox="-5 -5 30 30" version="1.1" xmlns="http://www.w3.org/2000/svg" xmlns:xlink="http://www.w3.org/1999/xlink">
	<g stroke="none" stroke-width="1" fill="none" fill-rule="evenodd">
		<path class="us-icon-spinner-circle" d="M10,3.15789474 C6.22736842,3.15789474 3.15789474,6.22736842 3.15789474,10 C3.15789474,13.7726316 6.22736842,16.8421053 10,16.8421053 C13.7726316,16.8421053 16.8421053,13.7726316 16.8421053,10 C16.8421053,6.22736842 13.7726316,3.15789474 10,3.15789474 M10,20 C4.48631579,20 0,15.5136842 0,10 C0,4.48631579 4.48631579,0 10,0 C15.5136842,0 20,4.48631579 20,10 C20,15.5136842 15.5136842,20 10,20" fill="#E2DED5"></path>
		<path class="us-icon-spinner-element" d="M10,20 C9.12736842,20 8.42105263,19.2926316 8.42105263,18.4210526 C8.42105263,17.5494737 9.12736842,16.8421053 10,16.8421053 C13.7726316,16.8421053 16.8421053,13.7726316 16.8421053,10 C16.8421053,9.12736842 17.5494737,8.42105263 18.4210526,8.42105263 C19.2926316,8.42105263 20,9.12736842 20,10 C20,15.5136842 15.5136842,20 10,20" fill="#3A362E"></path>
	</g>
</svg>